<?xml version="1.0" standalone="no"?>
<!DOCTYPE svg PUBLIC "-//W3C//DTD SVG 20010904//EN"
 "http://www.w3.org/TR/2001/REC-SVG-20010904/DTD/svg10.dtd">
<svg version="1.0" xmlns="http://www.w3.org/2000/svg"
 width="1000.000000pt" height="1000.000000pt" viewBox="0 0 1000.000000 1000.000000"
 preserveAspectRatio="xMidYMid meet">
<metadata>
Created by potrace 1.11, written by Peter Selinger 2001-2013
</metadata>
<g transform="translate(0.000000,1000.000000) scale(0.100000,-0.100000)"
fill="#000000" stroke="none">
<path d="M0 5000 l0 -5000 5000 0 5000 0 0 5000 0 5000 -5000 0 -5000 0 0
-5000z m4880 3909 c-11 -8 4 -9 55 -3 39 3 78 6 88 5 9 0 25 -2 35 -2 9 -1 26
1 37 5 13 5 15 5 8 -1 -8 -5 31 -10 100 -11 133 -2 175 -6 185 -17 4 -4 -4 -4
-18 -1 -19 5 -21 5 -9 -3 10 -6 28 -7 45 -2 16 4 40 4 52 0 15 -6 31 -5 44 2
15 8 19 8 14 0 -4 -6 -2 -11 4 -11 6 0 9 -4 6 -9 -8 -12 37 0 46 12 4 6 13 4
23 -6 19 -19 32 -22 37 -6 2 5 11 7 22 3 14 -5 15 -9 4 -16 -14 -10 -13 -10
37 7 14 5 16 4 7 -3 -11 -7 -10 -10 3 -16 9 -3 24 -6 33 -6 15 0 15 2 2 10
-10 7 -11 10 -2 10 7 0 15 -6 18 -14 3 -8 11 -13 19 -10 7 3 20 -2 29 -11 12
-12 20 -14 33 -6 13 7 14 10 4 11 -8 0 -11 3 -8 7 4 3 16 -2 27 -12 11 -10 23
-15 27 -12 3 4 13 2 20 -5 11 -9 16 -9 22 1 6 10 10 9 14 -3 4 -10 19 -16 39
-16 26 0 30 -3 18 -11 -13 -9 -12 -10 3 -5 9 3 25 9 35 12 14 5 15 4 2 -5 -12
-8 -8 -11 20 -11 27 0 32 -3 20 -10 -11 -8 -8 -9 13 -4 18 4 27 2 27 -6 0 -7
8 -10 20 -7 11 3 23 1 26 -4 3 -5 18 -9 35 -9 16 0 29 -4 29 -9 0 -15 33 -22
42 -9 6 10 8 8 8 -4 0 -12 8 -18 25 -18 14 0 25 -5 25 -11 0 -6 7 -8 16 -5 8
3 22 -1 30 -9 9 -8 29 -15 45 -15 18 0 28 -4 24 -10 -3 -5 1 -10 10 -10 9 0
14 -3 12 -7 -3 -5 11 -9 31 -11 20 -1 38 -6 42 -11 3 -4 13 -7 23 -5 9 1 15
-1 12 -6 -6 -9 24 -24 43 -21 6 1 12 -2 12 -8 0 -5 19 -13 43 -17 38 -7 40 -8
17 -15 -27 -8 -21 -9 44 -13 16 -1 31 -7 34 -14 2 -6 22 -17 44 -23 28 -7 37
-13 28 -19 -8 -5 2 -10 30 -15 25 -4 38 -10 30 -15 -8 -5 -6 -9 7 -14 10 -4
20 -7 23 -7 3 0 9 -7 13 -15 6 -10 16 -13 30 -9 17 5 18 4 8 -4 -12 -8 -10
-11 12 -16 15 -4 27 -11 27 -17 0 -5 5 -6 10 -3 6 3 10 1 10 -4 0 -6 12 -11
28 -11 21 0 24 -2 12 -10 -13 -8 -12 -10 3 -10 10 0 15 -5 12 -11 -4 -6 -1
-10 6 -8 27 3 40 -1 34 -11 -4 -6 6 -10 22 -10 22 0 25 -2 13 -10 -12 -8 -10
-10 8 -10 13 0 21 -4 18 -9 -3 -4 7 -14 21 -20 15 -7 33 -21 41 -32 7 -10 20
-19 28 -19 22 0 74 -42 67 -53 -4 -6 0 -8 10 -4 11 4 22 -1 29 -13 7 -11 22
-20 33 -20 17 0 17 -2 5 -10 -13 -8 -13 -10 2 -10 10 0 22 -9 28 -20 6 -11 17
-20 26 -20 8 0 17 -7 20 -15 4 -8 13 -15 21 -15 8 0 11 -4 8 -10 -5 -9 15 -15
37 -11 4 0 4 -7 1 -16 -5 -13 -2 -15 12 -9 11 4 16 4 13 0 -4 -3 5 -17 20 -31
15 -13 21 -21 13 -17 -9 5 -12 3 -7 -4 4 -7 14 -12 22 -12 8 0 14 -4 14 -10 0
-5 17 -21 37 -35 21 -14 34 -25 30 -25 -5 0 -2 -7 7 -15 8 -8 19 -15 25 -15 6
0 10 -4 9 -8 -4 -12 51 -64 61 -58 5 4 7 -3 4 -14 -3 -12 0 -20 7 -20 20 0 57
-34 52 -49 -3 -10 0 -12 12 -8 8 3 15 3 15 -1 -3 -20 3 -32 16 -32 8 0 14 -4
13 -9 -2 -5 6 -17 18 -27 11 -11 23 -27 27 -37 4 -11 12 -15 18 -11 8 4 9 3 5
-5 -8 -12 4 -26 44 -54 13 -9 19 -17 11 -17 -7 0 1 -14 18 -30 16 -17 33 -40
36 -51 5 -14 12 -18 23 -14 9 3 13 3 9 -1 -4 -4 1 -16 10 -27 14 -16 15 -21 5
-25 -10 -3 -5 -11 15 -23 15 -10 24 -19 20 -19 -5 0 5 -14 22 -31 17 -17 31
-37 31 -45 0 -9 5 -12 10 -9 14 8 13 -8 -1 -22 -9 -9 -6 -11 12 -7 19 5 21 3
9 -5 -12 -9 -12 -11 3 -17 9 -3 15 -10 12 -14 -3 -5 3 -13 12 -19 10 -6 14
-11 9 -11 -5 0 3 -11 18 -25 15 -14 21 -25 14 -26 -10 0 -10 -2 0 -6 6 -2 10
-9 7 -13 -3 -5 4 -14 15 -20 11 -6 18 -15 15 -19 -2 -5 4 -20 15 -33 11 -14
17 -28 13 -31 -3 -4 2 -9 11 -13 9 -3 14 -10 11 -14 -3 -5 2 -15 10 -24 9 -8
15 -18 15 -21 -2 -18 15 -56 30 -70 10 -9 16 -23 14 -30 -3 -7 2 -15 10 -18 9
-4 13 -13 10 -22 -3 -8 -1 -15 5 -15 6 0 11 -9 11 -20 0 -11 5 -20 11 -20 7 0
9 -10 7 -25 -4 -17 -1 -25 9 -25 8 0 11 -4 8 -10 -3 -5 2 -10 12 -11 10 0 13
-3 6 -6 -7 -2 -13 -9 -13 -15 0 -6 7 -8 14 -5 10 4 13 1 9 -10 -3 -8 0 -19 8
-24 12 -7 12 -9 0 -9 -11 0 -11 -3 0 -16 7 -9 14 -25 16 -36 2 -12 11 -27 21
-34 11 -9 12 -13 4 -14 -9 0 -9 -6 3 -23 8 -13 12 -27 8 -30 -3 -4 2 -7 13 -7
14 0 16 -2 5 -9 -9 -6 -10 -10 -2 -16 7 -3 9 -15 6 -26 -4 -10 -2 -19 4 -19 5
0 8 -9 6 -20 -2 -11 -1 -19 3 -17 4 1 7 0 8 -3 0 -3 6 -16 13 -29 7 -13 8 -21
3 -17 -6 3 -9 -1 -8 -11 2 -9 11 -20 22 -24 10 -4 13 -8 6 -8 -9 -1 -10 -6 -3
-20 6 -10 7 -21 4 -25 -3 -3 -1 -6 5 -6 6 0 9 -9 7 -20 -3 -14 2 -20 13 -20
15 0 15 -2 2 -10 -8 -5 -10 -10 -4 -10 11 0 14 -12 14 -67 0 -18 5 -33 11 -33
6 0 9 -7 5 -15 -3 -8 -1 -15 5 -15 6 0 7 -4 4 -10 -3 -5 0 -10 7 -10 8 -1 6
-6 -5 -15 -18 -13 -18 -14 4 -25 15 -9 18 -14 10 -20 -9 -5 -8 -11 4 -24 9 -9
12 -16 7 -16 -6 0 -13 -7 -16 -16 -3 -8 -2 -13 3 -10 11 7 23 -22 15 -35 -3
-5 -2 -15 2 -21 8 -13 15 -59 16 -110 0 -15 4 -25 9 -23 4 3 6 -4 4 -15 -2
-12 0 -32 5 -46 7 -17 6 -24 -3 -25 -9 0 -9 -2 1 -6 15 -6 16 -33 1 -33 -6 0
-4 -9 5 -22 11 -16 13 -25 4 -35 -8 -10 -6 -13 8 -13 16 0 17 -2 4 -10 -8 -5
-11 -10 -7 -10 4 0 3 -9 -3 -20 -8 -14 -8 -20 0 -20 7 0 7 -7 -1 -21 -9 -17
-8 -20 2 -14 9 6 11 3 6 -8 -3 -9 -1 -19 5 -23 7 -4 6 -9 -3 -15 -12 -7 -12
-9 0 -9 7 0 11 -6 8 -14 -3 -7 0 -19 6 -26 9 -10 9 -11 0 -6 -8 5 -13 1 -13
-9 0 -10 5 -14 13 -9 10 6 10 4 0 -7 -15 -15 -17 -33 -4 -25 4 3 7 -6 5 -21
-1 -14 -9 -30 -16 -34 -11 -7 -11 -9 1 -9 7 0 11 -6 8 -14 -3 -7 0 -19 6 -26
9 -10 9 -11 0 -6 -8 5 -13 1 -13 -9 0 -10 5 -14 13 -9 10 6 10 4 0 -7 -15 -15
-17 -33 -4 -25 4 3 7 -6 5 -21 -1 -14 -9 -30 -16 -34 -11 -7 -11 -9 1 -9 7 0
11 -6 8 -14 -3 -7 0 -19 6 -26 7 -7 7 -10 2 -7 -6 3 -15 -10 -21 -28 -7 -22
-7 -32 -1 -28 6 4 8 0 4 -9 -3 -9 0 -21 6 -27 8 -8 8 -11 -2 -11 -11 0 -11 -3
-1 -15 9 -11 9 -15 1 -15 -7 0 -10 -4 -6 -9 3 -5 -2 -17 -11 -25 -8 -9 -11
-16 -5 -16 6 0 11 -7 11 -15 0 -8 -5 -15 -10 -15 -6 0 -2 -12 7 -27 10 -15 13
-24 7 -20 -17 10 -25 -19 -14 -47 6 -16 5 -26 -1 -28 -6 -2 -13 -23 -15 -47
-2 -24 -7 -47 -10 -52 -3 -5 1 -9 8 -10 10 0 10 -2 0 -6 -6 -2 -10 -9 -6 -14
3 -5 1 -9 -3 -9 -5 0 -9 -10 -10 -22 -2 -62 -9 -106 -15 -101 -13 7 -9 -12 4
-25 9 -9 8 -12 -7 -12 -14 0 -16 -3 -8 -11 9 -9 8 -19 -3 -40 -11 -23 -12 -29
-2 -29 8 0 7 -4 -3 -10 -11 -7 -16 -22 -15 -44 1 -25 -2 -32 -13 -28 -11 4
-11 1 -2 -15 8 -16 7 -24 -4 -33 -8 -7 -12 -16 -9 -21 3 -5 -3 -9 -13 -9 -10
0 -14 -4 -8 -8 14 -10 17 -32 4 -32 -5 0 -8 -4 -5 -8 2 -4 1 -14 -4 -22 -5 -9
-5 -19 2 -27 8 -10 6 -13 -8 -13 -16 0 -17 -2 -4 -10 12 -7 12 -10 1 -10 -7 0
-11 -6 -8 -14 3 -8 -1 -17 -9 -20 -8 -3 -14 -10 -14 -16 0 -6 4 -8 10 -5 6 3
7 -1 4 -9 -3 -9 -10 -16 -16 -16 -5 0 -6 -4 -3 -10 3 -5 1 -10 -5 -10 -6 0 -8
-11 -6 -25 3 -14 0 -25 -6 -25 -5 0 -7 -7 -4 -16 3 -8 2 -13 -3 -10 -5 3 -15
-1 -22 -10 -7 -8 -8 -14 -3 -13 22 4 23 -2 5 -23 -11 -11 -18 -25 -15 -30 3
-4 0 -8 -6 -8 -6 0 -8 -4 -5 -10 3 -5 1 -10 -6 -10 -10 0 -10 -3 -1 -12 8 -8
6 -16 -11 -30 -15 -14 -18 -21 -9 -27 8 -5 6 -11 -7 -21 -11 -7 -17 -20 -13
-28 3 -9 1 -13 -5 -9 -5 3 -9 -3 -8 -16 1 -12 -7 -30 -18 -39 -14 -13 -16 -18
-6 -19 10 0 11 -2 1 -6 -6 -2 -10 -9 -6 -14 3 -5 1 -9 -5 -9 -5 0 -13 -9 -16
-20 -3 -11 -12 -20 -20 -20 -8 0 -12 -9 -10 -26 2 -17 -2 -24 -11 -20 -8 3
-11 0 -7 -10 3 -8 -2 -23 -11 -33 -9 -10 -13 -21 -9 -24 3 -4 -2 -7 -13 -7
-16 0 -17 -2 -4 -10 11 -7 11 -10 2 -10 -7 0 -11 -4 -7 -9 3 -5 -4 -13 -16
-16 -17 -6 -19 -9 -8 -16 12 -7 11 -9 -1 -9 -12 0 -12 -2 -2 -9 10 -6 8 -10
-8 -14 -12 -3 -19 -10 -15 -16 3 -6 2 -11 -4 -11 -6 0 -8 -7 -5 -15 4 -8 1
-15 -5 -15 -6 0 -11 -7 -11 -15 0 -8 -4 -15 -10 -15 -5 0 -10 -7 -10 -15 0 -8
-4 -15 -9 -15 -5 0 -14 -13 -21 -29 -6 -16 -18 -32 -26 -35 -8 -3 -14 -14 -14
-25 0 -11 -11 -31 -25 -45 -16 -16 -20 -26 -12 -29 7 -3 4 -6 -6 -6 -10 -1
-15 -6 -12 -11 3 -6 -1 -10 -9 -10 -10 0 -13 -6 -10 -15 4 -10 0 -15 -16 -15
-17 0 -20 -4 -15 -21 4 -12 3 -19 -1 -16 -5 3 -14 -1 -21 -8 -10 -11 -10 -15
0 -18 7 -3 4 -6 -5 -6 -10 -1 -18 -5 -18 -9 0 -5 -10 -14 -22 -21 -19 -9 -19
-11 -3 -6 19 5 19 4 2 -9 -14 -10 -15 -15 -5 -19 7 -3 3 -6 -9 -6 -13 -1 -23
-7 -23 -16 0 -8 -5 -15 -11 -15 -6 0 -8 -7 -5 -16 3 -9 2 -12 -5 -9 -5 4 -19
-3 -30 -16 -15 -17 -17 -24 -7 -31 9 -5 5 -8 -10 -8 -13 0 -21 -4 -17 -9 3 -5
1 -12 -5 -16 -6 -4 -7 -11 -4 -17 4 -7 2 -8 -5 -4 -12 8 -44 -18 -34 -28 4 -3
-1 -6 -10 -6 -9 0 -19 -4 -22 -10 -4 -6 1 -7 12 -4 10 4 1 -6 -19 -21 -21 -15
-40 -36 -43 -46 -4 -11 -13 -19 -21 -19 -8 0 -12 -4 -9 -10 3 -5 -1 -10 -10
-10 -11 0 -15 -5 -11 -15 3 -9 -1 -15 -11 -15 -14 0 -63 -43 -63 -56 0 -9 -24
-30 -43 -37 -10 -4 -15 -11 -12 -17 3 -5 -1 -10 -10 -10 -10 0 -13 -5 -9 -12
4 -7 3 -8 -5 -4 -6 4 -25 -7 -44 -26 -18 -19 -38 -33 -45 -30 -16 5 -15 -15 1
-21 6 -2 0 -8 -15 -12 -16 -4 -25 -11 -22 -16 3 -5 -4 -9 -16 -9 -12 0 -19 -4
-16 -9 3 -5 -4 -11 -15 -14 -12 -3 -18 -10 -14 -16 3 -7 -2 -11 -14 -11 -12 0
-21 -5 -21 -11 0 -13 -29 -43 -36 -36 -3 3 -20 -8 -37 -24 -18 -17 -42 -32
-54 -35 -13 -4 -20 -10 -17 -15 3 -5 -2 -9 -11 -9 -9 0 -14 -4 -11 -9 3 -5 -8
-11 -24 -15 -18 -3 -30 -12 -30 -21 0 -9 -9 -15 -22 -15 -19 0 -20 -2 -8 -10
12 -8 11 -10 -7 -10 -13 0 -23 -4 -23 -8 0 -5 -18 -14 -40 -21 -22 -7 -38 -16
-35 -21 4 -6 1 -11 -4 -11 -6 -1 -15 -3 -21 -4 -5 -1 -13 -3 -17 -4 -5 -1 -1
-6 7 -11 12 -8 11 -10 -7 -10 -12 0 -29 -7 -37 -16 -9 -8 -20 -12 -26 -9 -5 3
-10 1 -10 -5 0 -16 -43 -30 -53 -16 -5 6 -5 0 -2 -12 6 -21 4 -23 -14 -17 -12
4 -21 2 -21 -4 0 -6 -9 -11 -20 -11 -12 0 -20 -7 -20 -16 0 -10 -5 -14 -15
-10 -17 6 -85 -23 -85 -36 0 -4 -8 -8 -18 -8 -11 0 -29 -9 -42 -20 -13 -12
-30 -18 -37 -15 -8 2 -12 1 -9 -4 3 -5 -3 -11 -14 -14 -10 -3 -21 0 -24 7 -2
6 -5 0 -5 -14 -1 -14 -4 -20 -9 -14 -4 7 -15 8 -27 3 -14 -5 -15 -8 -5 -9 8
-1 -5 -6 -30 -11 -25 -5 -46 -13 -48 -18 -2 -6 -10 -7 -18 -4 -8 3 -14 0 -14
-6 0 -6 -11 -11 -25 -11 -14 0 -25 -4 -25 -8 0 -11 -65 -32 -107 -35 -17 -1
-31 -4 -31 -7 2 -22 -3 -34 -10 -23 -4 6 -19 9 -34 6 -15 -3 -26 -9 -23 -13 3
-5 -4 -6 -15 -3 -14 4 -20 0 -20 -11 0 -10 -4 -14 -10 -11 -5 3 -23 -1 -39
-10 -33 -17 -55 -20 -31 -5 9 6 10 10 3 10 -6 0 -19 -7 -28 -17 -13 -13 -19
-13 -25 -4 -6 10 -9 10 -15 1 -4 -6 -14 -9 -22 -6 -8 3 -11 1 -8 -5 4 -6 -3
-7 -21 -3 -18 5 -25 3 -21 -4 5 -6 -16 -13 -54 -17 -41 -5 -57 -10 -48 -16 8
-5 10 -9 4 -9 -5 0 -17 4 -25 10 -9 5 -17 5 -20 0 -3 -5 -40 -14 -80 -18 -41
-5 -84 -12 -95 -16 -16 -6 -17 -6 -5 3 9 6 10 11 3 11 -6 0 -19 -7 -28 -17
-14 -14 -18 -14 -26 -2 -7 11 -9 11 -9 1 0 -7 -5 -10 -11 -6 -6 3 -15 0 -20
-7 -8 -12 -11 -12 -19 1 -8 13 -13 13 -30 2 -11 -7 -24 -11 -28 -9 -4 3 -32 1
-62 -3 -37 -5 -57 -4 -62 4 -6 8 -11 7 -17 -3 -12 -19 -63 -23 -206 -18 -38 2
-78 -1 -89 -6 -11 -5 -21 -5 -25 0 -7 10 -82 10 -100 -1 -6 -4 -22 -1 -35 7
-16 11 -27 12 -40 5 -13 -7 -21 -7 -26 2 -6 9 -13 9 -28 1 -26 -14 -42 -14
-22 0 12 8 10 9 -10 7 -14 -1 -30 1 -36 5 -6 3 -26 2 -44 -3 -19 -5 -36 -7
-39 -5 -2 3 2 5 10 6 8 0 1 5 -16 10 -20 6 -32 5 -37 -4 -6 -8 -10 -9 -15 -1
-12 17 -61 26 -66 11 -4 -9 -7 -9 -15 1 -5 7 -16 10 -25 6 -10 -4 -17 -1 -17
6 0 7 -14 11 -37 9 -21 -1 -49 -1 -63 0 -21 1 -22 3 -10 12 12 8 9 10 -12 6
-15 -2 -25 0 -22 4 3 5 -7 9 -23 10 -63 2 -103 8 -123 19 -11 6 -25 8 -30 5
-6 -3 -10 -1 -10 5 0 8 -6 7 -21 -1 -17 -9 -20 -8 -14 1 6 10 1 12 -18 8 -15
-3 -24 -1 -21 3 3 5 -4 9 -15 9 -10 0 -22 6 -24 13 -4 9 -8 8 -16 -3 -9 -13
-12 -13 -20 -1 -5 7 -14 10 -20 7 -6 -4 -11 0 -12 11 0 10 -3 13 -6 6 -7 -18
-23 -16 -23 3 0 11 -5 14 -16 10 -8 -3 -25 -1 -37 6 -12 7 -28 11 -34 10 -7
-2 -13 2 -13 8 0 5 -13 10 -30 10 -16 0 -30 5 -30 10 0 6 -11 10 -25 10 -14 0
-25 5 -25 11 0 6 -12 8 -32 5 -22 -4 -27 -3 -14 2 18 8 18 9 2 15 -10 4 -22 5
-27 1 -5 -3 -9 -1 -9 5 0 6 -7 8 -15 5 -8 -4 -15 -1 -15 6 0 8 -9 11 -24 8
-19 -4 -23 -1 -18 10 4 11 1 14 -11 9 -9 -3 -17 -2 -17 3 0 5 -9 7 -20 5 -11
-2 -18 0 -15 6 4 5 -3 9 -15 9 -13 0 -19 4 -14 12 4 7 3 8 -5 4 -6 -4 -18 0
-27 8 -8 9 -24 16 -35 16 -10 0 -19 4 -19 10 0 5 -12 13 -27 16 -26 7 -36 13
-69 43 -9 8 -25 11 -42 7 -18 -5 -22 -4 -13 3 10 6 2 11 -29 16 -30 5 -38 10
-29 16 10 6 8 9 -9 9 -15 0 -21 4 -16 12 4 7 3 8 -5 4 -6 -4 -18 0 -27 8 -8 9
-25 16 -37 16 -18 0 -19 2 -7 10 13 8 12 10 -2 10 -10 0 -18 4 -18 9 0 5 -9 7
-20 4 -12 -3 -20 0 -20 6 0 7 6 9 13 6 6 -4 3 1 -7 9 -11 9 -28 14 -38 10 -13
-4 -16 -1 -12 10 4 11 0 14 -16 11 -16 -3 -20 0 -16 11 5 12 1 14 -16 8 -17
-5 -20 -3 -15 10 4 10 3 15 -3 11 -6 -3 -10 -1 -10 4 0 6 -7 11 -15 11 -8 0
-15 5 -15 10 0 6 -10 10 -22 10 -12 0 -18 3 -15 7 12 11 -15 33 -42 33 -20 0
-23 2 -11 10 13 8 12 10 -2 10 -10 0 -18 5 -18 10 0 6 -11 10 -24 10 -16 0
-23 5 -22 17 0 10 -7 19 -18 21 -10 2 -29 14 -41 26 -12 11 -31 27 -41 34 -11
7 -13 10 -6 7 28 -14 9 6 -21 21 -17 9 -53 39 -78 65 -25 27 -54 49 -64 49
-10 0 -15 3 -12 6 7 7 -79 94 -91 94 -4 0 -12 10 -17 22 -6 12 -21 25 -35 29
-14 4 -18 8 -10 9 10 1 8 5 -7 12 -13 6 -25 19 -29 30 -3 10 -16 26 -30 34
-13 9 -21 21 -17 27 3 6 1 7 -5 3 -8 -4 -16 3 -22 19 -6 15 -19 29 -30 32 -11
3 -17 9 -14 14 3 5 0 9 -6 9 -6 0 -9 4 -6 9 3 5 -5 12 -19 15 -16 4 -22 11
-19 21 4 8 1 15 -6 15 -6 0 -8 5 -4 12 5 8 2 9 -10 5 -10 -4 -15 -3 -11 3 4 6
-9 26 -29 44 -19 19 -32 36 -30 39 3 3 -12 24 -33 46 -21 23 -38 50 -38 59 0
9 -9 21 -20 27 -11 6 -21 17 -23 25 -2 8 -7 17 -10 20 -18 13 -46 53 -32 45
13 -8 13 -6 1 8 -7 9 -16 15 -20 13 -4 -3 -8 5 -8 17 -1 12 -9 27 -17 33 -9 6
-13 14 -9 18 4 4 -3 9 -16 13 -14 4 -18 8 -11 13 8 5 7 12 -5 23 -9 9 -14 21
-10 27 3 5 0 7 -8 4 -8 -3 -18 -1 -22 5 -3 6 0 11 7 11 9 0 9 3 -2 10 -8 5
-11 10 -6 10 5 0 -3 11 -18 25 -15 14 -21 25 -14 25 8 1 5 6 -6 15 -11 8 -16
15 -10 15 5 0 1 5 -8 11 -9 5 -15 16 -12 23 3 7 -2 20 -10 29 -8 8 -12 17 -9
21 4 3 -1 6 -11 6 -9 0 -15 4 -11 9 3 5 -2 17 -11 25 -9 9 -11 16 -4 16 8 0 7
5 -2 14 -8 7 -22 33 -33 57 -11 24 -24 47 -30 51 -6 5 -4 8 5 8 12 1 11 3 -3
14 -10 8 -20 24 -22 37 -3 12 -10 26 -17 31 -10 6 -10 8 1 8 11 0 10 4 -5 16
-10 8 -12 13 -4 9 10 -4 9 -2 -2 8 -10 8 -15 17 -11 20 3 4 1 13 -5 20 -7 8
-9 17 -5 20 3 4 -2 7 -13 8 -10 0 -13 3 -7 6 10 3 10 10 2 24 -5 11 -7 25 -3
31 5 8 2 9 -11 4 -15 -5 -16 -4 -5 9 10 12 9 15 -5 15 -10 0 -15 3 -12 7 4 3
1 13 -6 21 -9 13 -9 14 1 8 6 -4 12 -2 12 3 0 6 -5 11 -11 11 -6 0 -9 7 -5 15
3 10 -1 15 -12 15 -12 0 -13 3 -5 8 8 5 9 13 3 22 -6 8 -10 25 -10 38 0 13 -4
20 -10 17 -7 -4 -9 3 -6 19 3 14 1 26 -4 26 -5 0 -7 7 -4 15 4 8 1 15 -5 15
-6 0 -10 3 -10 8 1 4 0 9 -1 12 -1 3 -4 16 -6 30 -8 49 -11 65 -14 65 -1 0 -3
12 -4 26 -1 14 -9 34 -19 43 -18 19 -23 31 -8 21 5 -3 12 -1 16 5 3 5 0 10 -7
10 -8 0 -14 9 -15 20 -1 11 2 18 7 15 6 -3 7 1 4 9 -3 9 -14 16 -23 17 -11 0
-12 2 -3 6 10 4 10 8 0 21 -11 13 -11 14 0 8 11 -7 12 -4 3 12 -6 11 -11 32
-11 46 0 14 -5 28 -10 31 -8 5 -7 11 1 21 9 11 9 14 0 14 -8 0 -10 8 -6 19 3
11 2 22 -4 25 -11 7 -9 25 3 45 7 11 5 13 -6 9 -11 -5 -14 0 -10 19 3 15 -1
29 -9 34 -10 6 -11 9 -1 9 15 0 8 50 -9 60 -8 5 -8 10 -1 14 6 4 9 13 6 20 -3
8 0 17 6 21 8 5 6 14 -5 32 -21 32 -27 63 -12 63 7 0 6 4 -3 10 -8 5 -10 10
-4 10 9 0 13 39 4 48 -7 7 -4 28 5 34 6 5 3 8 -7 8 -14 0 -15 5 -8 30 5 17 9
33 10 37 1 3 -4 10 -12 14 -10 7 -10 9 0 9 6 0 12 5 12 11 0 5 -4 8 -9 5 -13
-8 0 37 13 46 7 5 5 8 -6 8 -14 0 -15 5 -8 30 5 17 9 33 10 37 1 3 -4 10 -12
14 -10 7 -10 9 0 9 6 0 12 5 12 11 0 5 -4 8 -9 5 -13 -8 0 37 13 46 7 5 5 8
-5 8 -12 0 -15 7 -11 25 2 14 9 25 16 25 6 0 4 5 -4 10 -8 5 -10 10 -4 10 13
0 15 30 3 45 -4 6 -4 17 1 25 5 8 5 21 -1 32 -8 15 -6 18 13 19 22 0 22 1 3 9
-13 6 -15 9 -5 9 12 1 13 3 1 10 -9 6 -10 11 -2 15 6 4 9 11 6 16 -3 5 0 19 7
30 11 17 11 22 -2 30 -10 6 -11 10 -3 10 8 0 11 9 9 23 -2 12 1 28 6 35 6 6 7
12 3 12 -4 0 -1 8 6 17 12 15 12 16 -4 10 -15 -6 -16 -4 -7 13 6 11 8 20 5 20
-4 0 -3 6 1 12 5 7 9 19 10 28 1 8 5 24 9 34 6 14 5 17 -4 12 -15 -10 -10 14
7 32 15 17 16 32 0 32 -6 0 -3 7 8 15 16 13 17 16 4 25 -11 7 -11 10 -2 10 7
0 10 5 7 10 -3 6 -2 10 3 10 5 0 8 13 7 30 -1 16 2 27 6 24 4 -2 10 0 14 6 3
5 -1 10 -10 10 -15 0 -15 1 0 16 13 14 14 19 3 25 -10 7 -9 9 4 9 10 0 15 7
13 18 -1 9 2 23 8 30 6 8 6 12 -3 12 -9 0 -8 6 4 19 10 11 15 24 12 30 -4 5
-1 13 5 17 8 4 7 9 -2 15 -11 7 -9 9 6 9 17 0 17 2 5 10 -11 7 -11 10 -2 10 7
0 11 4 8 9 -4 5 0 12 6 15 10 5 10 7 0 12 -10 5 -9 9 4 18 9 7 18 24 20 37 2
13 5 33 6 44 2 11 9 26 16 33 7 8 10 18 7 23 -4 5 -1 9 5 9 6 0 8 5 5 10 -3 6
-2 10 4 10 6 0 8 7 5 15 -4 8 -1 15 6 15 6 0 9 4 5 9 -3 5 -1 12 5 16 6 4 8
11 5 16 -4 5 0 9 7 9 11 0 10 2 0 9 -11 6 -10 10 3 15 14 5 15 9 5 21 -11 13
-10 14 2 10 8 -3 15 0 15 7 1 23 8 43 18 50 6 5 4 8 -5 8 -9 0 -11 3 -5 8 17
11 49 65 52 87 2 10 9 23 16 27 9 6 8 8 -2 8 -9 0 -6 7 8 19 13 11 20 25 16
31 -3 5 1 13 9 16 9 3 16 13 16 21 0 9 10 24 22 34 12 11 16 19 8 19 -9 0 -8
6 4 19 10 11 15 24 12 30 -4 5 -2 12 4 16 6 4 8 10 5 15 -3 4 5 10 16 13 12 3
18 10 15 15 -3 5 1 15 10 22 12 11 12 15 2 21 -10 7 -9 9 4 9 9 0 20 4 23 10
3 6 -1 7 -12 4 -10 -3 -2 4 17 16 28 17 30 20 10 15 l-25 -6 25 15 c14 9 21
16 15 16 -5 0 -1 7 9 15 11 8 14 15 7 15 -6 0 -1 11 13 23 14 13 23 27 19 30
-3 4 0 7 7 7 7 0 11 3 7 6 -5 6 -1 13 29 47 5 7 13 20 17 30 3 9 11 17 17 17
6 0 8 5 5 10 -3 6 -1 10 5 10 7 0 10 7 7 14 -4 11 -1 13 10 9 11 -4 14 -2 9 5
-4 7 -2 12 3 12 6 0 10 4 9 9 -2 5 9 22 24 39 18 20 23 32 15 36 -7 2 -2 5 10
5 16 1 21 6 18 21 -2 11 -1 19 3 18 18 -3 40 15 37 32 -3 13 1 17 11 13 8 -3
14 0 14 6 0 7 12 23 26 36 14 13 26 27 27 32 1 4 6 7 10 5 5 -1 6 2 2 8 -8 13
19 40 40 40 9 0 14 4 10 9 -3 6 3 14 12 20 12 7 14 10 4 11 -7 0 -1 10 15 22
16 13 40 33 54 45 14 13 28 23 33 23 4 0 6 4 3 9 -3 5 2 12 11 15 15 6 15 8 3
16 -12 8 -12 10 -2 10 20 0 63 36 54 45 -4 5 2 5 13 1 11 -4 17 -4 13 -1 -3 4
14 27 38 51 24 25 44 49 44 54 0 4 12 11 27 15 20 5 23 9 13 15 -9 6 -2 11 26
16 29 5 34 9 20 14 -16 5 -15 8 12 19 18 8 32 20 32 27 0 8 10 14 23 14 18 0
19 2 7 10 -12 8 -11 10 7 10 13 0 32 9 43 20 11 11 24 20 29 20 6 0 13 5 17
12 5 7 3 8 -6 3 -9 -5 -11 -4 -6 3 4 7 16 12 26 12 14 0 18 5 13 17 -4 11 -3
14 6 9 7 -5 18 0 26 10 11 15 14 16 15 4 0 -13 2 -13 9 0 6 8 7 18 5 22 -3 4
2 5 10 2 9 -3 16 -1 16 5 0 6 7 11 17 11 9 0 13 3 9 7 -3 4 8 12 26 18 21 6
32 16 31 26 -3 15 58 49 88 49 11 0 12 2 1 9 -10 6 -4 10 18 14 20 5 29 11 24
18 -4 8 -3 9 5 5 7 -5 20 1 30 13 10 12 28 21 40 21 13 0 21 6 21 18 0 12 3
13 8 5 6 -9 16 -6 36 12 16 14 39 25 50 25 18 0 19 2 6 11 -12 8 -10 9 7 4 15
-4 29 2 49 22 17 17 29 23 32 15 5 -17 22 -15 22 3 0 9 12 18 30 22 17 3 30 9
30 14 0 5 9 9 20 9 11 0 20 7 20 15 0 8 5 15 10 15 6 0 10 -5 10 -11 0 -6 13
-1 29 10 15 11 31 18 35 14 3 -3 6 -1 6 5 0 7 7 9 17 5 12 -5 15 -2 10 9 -4
12 -1 14 14 11 10 -3 26 1 35 8 21 17 85 39 96 33 4 -3 8 3 8 13 0 13 3 15 8
5 9 -14 42 -6 42 10 0 6 7 8 15 4 9 -3 15 0 15 10 0 8 5 12 11 9 13 -9 61 3
55 13 -2 4 8 8 22 8 42 3 66 8 73 17 3 5 26 11 50 14 24 4 59 15 77 25 34 19
58 25 32 8 -13 -8 -12 -10 3 -10 9 0 17 4 17 8 0 8 78 29 130 36 52 6 95 19
103 30 6 8 10 8 14 -1 6 -17 18 -16 37 2 13 13 20 14 38 4 16 -8 23 -9 26 -1
2 7 16 9 35 6 25 -4 29 -3 17 5 -11 9 -1 11 42 8 32 -2 55 0 52 4 -2 4 11 5
30 2 43 -7 89 4 80 18 -4 8 -1 8 14 0 13 -7 30 -7 52 -1 20 6 39 6 50 0 10 -5
21 -5 26 0 8 7 23 11 79 18 6 1 3 -3 -5 -9z m-2050 -663 c0 -2 -7 -7 -16 -10
-8 -3 -12 -2 -9 4 6 10 25 14 25 6z"/>
<path d="M2858 8263 c6 -2 18 -2 25 0 6 3 1 5 -13 5 -14 0 -19 -2 -12 -5z"/>
</g>
</svg>
