<?xml version="1.0" standalone="no"?>
<!DOCTYPE svg PUBLIC "-//W3C//DTD SVG 20010904//EN"
 "http://www.w3.org/TR/2001/REC-SVG-20010904/DTD/svg10.dtd">
<svg version="1.0" xmlns="http://www.w3.org/2000/svg"
 width="440.000000pt" height="440.000000pt" viewBox="0 0 440.000000 440.000000"
 preserveAspectRatio="xMidYMid meet">
<metadata>
Created by potrace 1.11, written by Peter Selinger 2001-2013
</metadata>
<g transform="translate(0.000000,440.000000) scale(0.100000,-0.100000)"
fill="#000000" stroke="none">
<path d="M2014 4189 c-374 -34 -757 -188 -1059 -427 -72 -56 -245 -226 -303
-297 -161 -197 -301 -467 -373 -719 -26 -91 -34 -129 -54 -246 -25 -145 -27
-423 -5 -570 84 -563 378 -1044 835 -1366 229 -162 522 -285 780 -328 17 -3
46 -8 65 -11 151 -26 429 -27 595 -1 212 33 420 100 610 196 432 220 770 590
948 1035 183 461 191 980 22 1435 -257 688 -853 1173 -1580 1286 -119 18 -354
25 -481 13z"/>
</g>
</svg>
